<svg id="图层_1" data-name="图层 1" xmlns="http://www.w3.org/2000/svg" viewBox="0 0 531.66 468.26"><defs><style>.cls-1{fill:#fff;}</style></defs><title>denglu_bg</title><circle class="cls-1" cx="-466.45" cy="-42.91" r="54.6" transform="translate(467.49 -134.1) rotate(-75)"/><path class="cls-1" d="M-240.1-256l-334.09-89.52a82.25,82.25,0,0,0-94.32,42.23l92.38,160a152.06,152.06,0,0,1,34.62-27.38,152.93,152.93,0,0,1,208.9,56,152.92,152.92,0,0,1-56,208.9A152.91,152.91,0,0,1-595.67,41.38L-709.8-156.3-769,64.8a81.88,81.88,0,0,0,4.69,55.2H-240.1Z" transform="translate(771.76 348.26)"/></svg>