<svg id="图层_1" data-name="图层 1" xmlns="http://www.w3.org/2000/svg" viewBox="0 0 120 120"><defs><style>.cls-1{fill:#fff;}</style></defs><title>logo_disabled</title><path class="cls-1" d="M15.06,7.41-30.48-38.13A14.52,14.52,0,0,0-48.63-40V-7.38a26.87,26.87,0,0,1,7.71-1.13,27,27,0,0,1,27,27,27,27,0,0,1-27,27,27,27,0,0,1-27-26.36h0v-40.3L-96.49,7.41a14.52,14.52,0,0,0,0,20.47l45.54,45.55a14.53,14.53,0,0,0,20.47,0L15.06,27.88A14.52,14.52,0,0,0,15.06,7.41Z" transform="translate(100.72 42.35)"/><circle class="cls-1" cx="60" cy="60" r="9.64"/></svg>