<svg id="图层_1" data-name="图层 1" xmlns="http://www.w3.org/2000/svg" viewBox="0 0 115 114.97"><defs><style>.cls-1{fill:#67d9ff;}.cls-2{fill:#51f6ec;}</style></defs><title>shenpi_icon</title><path class="cls-1" d="M9-7.08H9a5.44,5.44,0,0,1-5.29-7.25h0a5.4,5.4,0,0,0-1.93-6.21L-10.4-29.35a5.46,5.46,0,0,0-6.53.09h0A5.47,5.47,0,0,1-25.49-32h0a5.45,5.45,0,0,0-5.23-3.9H-45.77A5.45,5.45,0,0,0-51-32h0a5.47,5.47,0,0,1-8.56,2.77h0a5.46,5.46,0,0,0-6.53-.09l-12.18,8.81a5.42,5.42,0,0,0-1.93,6.21h0a5.44,5.44,0,0,1-5.29,7.25h0a5.45,5.45,0,0,0-5.34,3.75l-4.65,14.25a5.43,5.43,0,0,0,2.11,6.16h0a5.42,5.42,0,0,1,0,9h0a5.41,5.41,0,0,0-2.11,6.15l4.65,14.26a5.45,5.45,0,0,0,5.34,3.75h0a5.44,5.44,0,0,1,5.29,7.25h0a5.42,5.42,0,0,0,1.93,6.21l12.18,8.81a5.46,5.46,0,0,0,6.53-.09h0A5.46,5.46,0,0,1-51,75.15h0a5.45,5.45,0,0,0,5.23,3.9h15.05a5.45,5.45,0,0,0,5.23-3.9h0a5.46,5.46,0,0,1,8.56-2.77h0a5.46,5.46,0,0,0,6.53.09L1.78,63.66a5.4,5.4,0,0,0,1.93-6.21h0A5.44,5.44,0,0,1,9,50.2H9a5.45,5.45,0,0,0,5.34-3.75L19,32.19A5.41,5.41,0,0,0,16.89,26h0a5.41,5.41,0,0,1,0-9h0A5.42,5.42,0,0,0,19,10.92L14.34-3.33A5.45,5.45,0,0,0,9-7.08Z" transform="translate(95.74 35.93)"/><path class="cls-2" d="M-10.25-6.5-48.73,25.17l-17.59-13-7.09,7.65,21.72,25.33,3.83,4.46,4-4.32L-3.08,1.12Z" transform="translate(95.74 35.93)"/></svg>