<svg id="图层_1" data-name="图层 1" xmlns="http://www.w3.org/2000/svg" viewBox="0 0 129.97 82"><defs><style>.cls-1{fill:#67d9ff;}.cls-2{fill:#51f6ec;}</style></defs><title>zhuce_icon</title><path class="cls-1" d="M-56.25-18.64l37.37,0,36.64.12c9.29,0,9.58,8.8,9.58,8.8V54.81c0,7.95-9.87,8.51-9.87,8.51H-93.35c-9,0-9.29-8.79-9.29-8.79v-64c0-10.21,9.58-9.08,9.58-9.08C-83.78-18.55-56.25-18.64-56.25-18.64Z" transform="translate(102.64 18.67)"/><path class="cls-2" d="M-71.62-.52c-6.24,0-11.3,5.91-11.3,13.19s5.06,13.19,11.3,13.19S-60.33,20-60.33,12.67-65.39-.52-71.62-.52ZM-50.1,38.22a44,44,0,0,0-5.58-8c-3.3-3.67-7.17,0-7.17,0s-1.71,3.44-7.41,3.55h-1.93c-5.69-.11-7.4-3.55-7.4-3.55s-3.87-3.67-7.18,0a44,44,0,0,0-5.58,8L-94,41.6c0,3.45,3.53,3.56,3.53,3.56h38.6s3.53-.11,3.53-3.56Zm21.06,7H-1.32a2.94,2.94,0,0,0,2.87-2.8,2.94,2.94,0,0,0-2.87-2.79H-29a2.94,2.94,0,0,0-2.87,2.79A3,3,0,0,0-29,45.17Zm0-22.37H-1.32A2.88,2.88,0,0,0,1.55,20a2.87,2.87,0,0,0-2.87-2.8H-29A2.88,2.88,0,0,0-31.91,20,2.88,2.88,0,0,0-29,22.8Zm-2.87,8.39A2.75,2.75,0,0,0-29,34H-1.32a2.75,2.75,0,0,0,2.87-2.79,2.76,2.76,0,0,0-2.87-2.8H-29A2.76,2.76,0,0,0-31.91,31.19ZM13.21,1.36H-26.17A5.81,5.81,0,0,0-31.91,7a5.81,5.81,0,0,0,5.74,5.59H13A5.81,5.81,0,0,0,18.76,7,5.64,5.64,0,0,0,13.21,1.36Z" transform="translate(102.64 18.67)"/></svg>